<svg xmlns="http://www.w3.org/2000/svg" width="100" height="75" viewBox="0 0 100 75" fill="none"><mask id="path-1-inside-1_27_28" fill="white">
<path d="M87 37.5C87 32.5754 86.03 27.6991 84.1455 23.1494C82.2609 18.5997 79.4987 14.4657 76.0165 10.9835C72.5343 7.5013 68.4003 4.73907 63.8506 2.85452C59.3009 0.969966 54.4246 -2.1526e-07 49.5 0C44.5754 2.1526e-07 39.6991 0.969967 35.1494 2.85452C30.5997 4.73907 26.4657 7.5013 22.9835 10.9835C19.5013 14.4657 16.7391 18.5997 14.8545 23.1494C12.97 27.6991 12 32.5754 12 37.5L49.5 37.5H87Z"></path>
</mask><path d="M87 37.5C87 32.5754 86.03 27.6991 84.1455 23.1494C82.2609 18.5997 79.4987 14.4657 76.0165 10.9835C72.5343 7.5013 68.4003 4.73907 63.8506 2.85452C59.3009 0.969966 54.4246 -2.1526e-07 49.5 0C44.5754 2.1526e-07 39.6991 0.969967 35.1494 2.85452C30.5997 4.73907 26.4657 7.5013 22.9835 10.9835C19.5013 14.4657 16.7391 18.5997 14.8545 23.1494C12.97 27.6991 12 32.5754 12 37.5L49.5 37.5H87Z" fill="black" stroke="black" stroke-width="2" mask="url(#path-1-inside-1_27_28)"></path><rect x="0.5" y="37.5" width="99" height="9" stroke="black"></rect><rect x="12.5" y="49.5" width="74" height="6" stroke="black"></rect><rect x="25.5" y="59.5" width="49" height="5" stroke="black"></rect></svg>